<svg xmlns="http://www.w3.org/2000/svg" width="700" height="420">
  <rect width="100%" height="100%" fill="white"/>
  <line x1="60" y1="60" x2="60" y2="360" stroke="#333" stroke-width="1"/>
  <line x1="60" y1="360" x2="640" y2="360" stroke="#333" stroke-width="1"/>
  <polyline fill="none" stroke="#1f77b4" stroke-width="2" points="60.00,360.00 61.62,341.85 63.23,355.05 64.85,331.39 66.46,360.00 68.08,360.00 69.69,344.35 71.31,300.09 72.92,358.78 74.54,360.00 76.16,360.00 77.77,341.77 79.39,360.00 81.00,360.00 82.62,359.91 84.23,360.00 85.85,343.04 87.47,360.00 89.08,360.00 90.70,319.45 92.31,360.00 93.93,360.00 95.54,351.25 97.16,311.03 98.77,360.00 100.39,360.00 102.01,360.00 103.62,358.99 105.24,306.53 106.85,355.25 108.47,353.86 110.08,356.79 111.70,352.16 113.31,360.00 114.93,356.89 116.55,336.00 118.16,333.87 119.78,340.50 121.39,360.00 123.01,359.84 124.62,356.42 126.24,357.87 127.86,360.00 129.47,359.90 131.09,360.00 132.70,309.49 134.32,351.51 135.93,360.00 137.55,329.40 139.16,356.47 140.78,360.00 142.40,360.00 144.01,360.00 145.63,356.24 147.24,360.00 148.86,360.00 150.47,341.95 152.09,360.00 153.70,357.72 155.32,359.99 156.94,107.48 158.55,107.41 160.17,173.38 161.78,347.67 163.40,349.16 165.01,345.05 166.63,215.72 168.25,314.44 169.86,247.92 171.48,351.56 173.09,203.02 174.71,272.67 176.32,295.96 177.94,297.01 179.55,119.04 181.17,220.73 182.79,219.32 184.40,159.54 186.02,251.95 187.63,286.52 189.25,197.08 190.86,262.62 192.48,187.32 194.09,336.29 195.71,219.89 197.33,184.28 198.94,263.51 200.56,308.43 202.17,309.21 203.79,182.92 205.40,342.92 207.02,312.81 208.64,91.98 210.25,327.22 211.87,351.27 213.48,356.25 215.10,253.37 216.71,272.77 218.33,236.88 219.94,148.44 221.56,252.19 223.18,340.67 224.79,209.92 226.41,313.26 228.02,318.15 229.64,342.23 231.25,224.48 232.87,218.69 234.48,206.63 236.10,222.58 237.72,146.46 239.33,278.33 240.95,243.30 242.56,272.73 244.18,248.16 245.79,257.48 247.41,271.68 249.03,351.57 250.64,328.34 252.26,149.25 253.87,358.42 255.49,358.19 257.10,354.88 258.72,360.00 260.33,332.16 261.95,360.00 263.57,360.00 265.18,347.99 266.80,325.60 268.41,360.00 270.03,334.86 271.64,358.96 273.26,356.00 274.87,349.79 276.49,353.48 278.11,356.36 279.72,360.00 281.34,360.00 282.95,360.00 284.57,348.73 286.18,360.00 287.80,360.00 289.42,360.00 291.03,360.00 292.65,360.00 294.26,360.00 295.88,357.53 297.49,356.56 299.11,360.00 300.72,318.80 302.34,348.92 303.96,350.80 305.57,342.96 307.19,360.00 308.80,360.00 310.42,360.00 312.03,356.41 313.65,360.00 315.26,360.00 316.88,360.00 318.50,356.78 320.11,360.00 321.73,360.00 323.34,358.59 324.96,360.00 326.57,359.95 328.19,336.94 329.81,356.13 331.42,296.22 333.04,350.23 334.65,360.00 336.27,332.35 337.88,357.70 339.50,359.15 341.11,349.15 342.73,360.00 344.35,350.43 345.96,360.00 347.58,360.00 349.19,321.87 350.81,351.24 352.42,358.84 354.04,345.54 355.65,302.37 357.27,328.35 358.89,312.63 360.50,352.84 362.12,345.80 363.73,227.22 365.35,334.68 366.96,292.62 368.58,172.73 370.19,136.70 371.81,350.22 373.43,253.52 375.04,260.03 376.66,213.39 378.27,316.54 379.89,129.51 381.50,220.70 383.12,199.08 384.74,301.78 386.35,268.58 387.97,357.21 389.58,348.27 391.20,358.44 392.81,336.53 394.43,204.60 396.04,289.93 397.66,315.43 399.28,358.66 400.89,338.58 402.51,344.11 404.12,347.78 405.74,259.56 407.35,325.96 408.97,359.99 410.58,343.08 412.20,289.17 413.82,324.05 415.43,261.79 417.05,339.28 418.66,148.10 420.28,334.12 421.89,313.73 423.51,241.09 425.13,315.67 426.74,357.28 428.36,330.47 429.97,322.51 431.59,309.55 433.20,293.84 434.82,359.48 436.43,285.37 438.05,182.09 439.67,346.63 441.28,325.94 442.90,316.74 444.51,358.86 446.13,281.81 447.74,356.33 449.36,340.24 450.97,360.00 452.59,351.49 454.21,360.00 455.82,351.30 457.44,355.16 459.05,340.68 460.67,359.92 462.28,360.00 463.90,335.19 465.52,334.17 467.13,359.88 468.75,356.80 470.36,360.00 471.98,360.00 473.59,360.00 475.21,360.00 476.82,350.63 478.44,360.00 480.06,360.00 481.67,357.72 483.29,360.00 484.90,347.84 486.52,360.00 488.13,360.00 489.75,357.29 491.36,357.72 492.98,359.83 494.60,360.00 496.21,360.00 497.83,349.76 499.44,342.74 501.06,360.00 502.67,360.00 504.29,344.72 505.91,348.46 507.52,354.31 509.14,359.60 510.75,352.84 512.37,359.88 513.98,360.00 515.60,346.61 517.21,360.00 518.83,360.00 520.45,325.56 522.06,356.71 523.68,349.79 525.29,360.00 526.91,324.45 528.52,352.53 530.14,359.38 531.75,353.24 533.37,359.91 534.99,360.00 536.60,360.00 538.22,322.66 539.83,360.00 541.45,353.58 543.06,328.73 544.68,150.99 546.30,226.78 547.91,220.06 549.53,205.30 551.14,166.83 552.76,247.74 554.37,173.58 555.99,224.45 557.60,271.72 559.22,257.57 560.84,144.04 562.45,84.05 564.07,152.52 565.68,100.72 567.30,131.31 568.91,161.59 570.53,295.43 572.14,229.40 573.76,216.35 575.38,206.81 576.99,200.90 578.61,138.55 580.22,81.53 581.84,91.57 583.45,283.98 585.07,131.48 586.69,114.16 588.30,291.58 589.92,297.80 591.53,60.00 593.15,79.35 594.76,172.68 596.38,211.86 597.99,165.54 599.61,160.44 601.23,184.07 602.84,225.02 604.46,80.82 606.07,184.92 607.69,312.97 609.30,358.31 610.92,360.00 612.53,354.28 614.15,353.36 615.77,360.00 617.38,359.64 619.00,355.74 620.61,359.71 622.23,360.00 623.84,360.00 625.46,359.97 627.08,356.43 628.69,360.00 630.31,329.98 631.92,360.00 633.54,360.00 635.15,357.87 636.77,304.02 638.38,360.00 640.00,360.00"/>
  <polyline fill="none" stroke="#d62728" stroke-width="2" points="60.00,359.29 61.62,358.08 63.23,357.64 64.85,351.60 66.46,353.23 68.08,354.65 69.69,349.35 71.31,343.34 72.92,343.34 74.54,343.34 76.16,343.34 77.77,343.34 79.39,343.34 81.00,343.34 82.62,343.34 84.23,343.34 85.85,343.34 87.47,343.34 89.08,343.34 90.70,343.34 92.31,343.34 93.93,343.34 95.54,343.34 97.16,343.34 98.77,343.34 100.39,343.34 102.01,343.34 103.62,343.34 105.24,343.34 106.85,343.34 108.47,343.34 110.08,343.34 111.70,343.34 113.31,343.34 114.93,343.34 116.55,343.34 118.16,343.34 119.78,343.34 121.39,343.34 123.01,343.34 124.62,343.34 126.24,343.34 127.86,343.34 129.47,343.34 131.09,343.34 132.70,343.34 134.32,343.34 135.93,343.34 137.55,343.34 139.16,343.34 140.78,343.34 142.40,343.34 144.01,343.34 145.63,343.34 147.24,343.34 148.86,343.34 150.47,343.34 152.09,343.34 153.70,343.34 155.32,343.34 156.94,343.34 158.55,343.34 160.17,343.34 161.78,343.34 163.40,343.34 165.01,343.34 166.63,343.34 168.25,343.34 169.86,343.34 171.48,343.34 173.09,343.34 174.71,343.34 176.32,343.34 177.94,343.34 179.55,343.34 181.17,343.34 182.79,343.34 184.40,343.34 186.02,343.34 187.63,343.34 189.25,343.34 190.86,343.34 192.48,343.34 194.09,343.34 195.71,343.34 197.33,343.34 198.94,343.34 200.56,343.34 202.17,343.34 203.79,343.34 205.40,343.34 207.02,343.34 208.64,343.34 210.25,343.34 211.87,343.34 213.48,343.34 215.10,343.34 216.71,343.34 218.33,343.34 219.94,343.34 221.56,343.34 223.18,343.34 224.79,343.34 226.41,343.34 228.02,343.34 229.64,343.34 231.25,343.34 232.87,343.34 234.48,343.34 236.10,343.34 237.72,343.34 239.33,343.34 240.95,343.34 242.56,343.34 244.18,343.34 245.79,343.34 247.41,343.34 249.03,343.34 250.64,343.34 252.26,343.34 253.87,343.34 255.49,343.34 257.10,343.34 258.72,343.34 260.33,343.34 261.95,343.34 263.57,343.34 265.18,343.34 266.80,343.34 268.41,343.34 270.03,343.34 271.64,343.34 273.26,343.34 274.87,343.34 276.49,343.34 278.11,343.34 279.72,343.34 281.34,343.34 282.95,343.34 284.57,343.34 286.18,343.34 287.80,343.34 289.42,343.34 291.03,343.34 292.65,343.34 294.26,343.34 295.88,343.34 297.49,343.34 299.11,343.34 300.72,343.34 302.34,343.34 303.96,343.34 305.57,343.34 307.19,343.34 308.80,343.34 310.42,343.34 312.03,343.34 313.65,343.34 315.26,343.34 316.88,343.34 318.50,343.34 320.11,343.34 321.73,343.34 323.34,343.34 324.96,343.34 326.57,343.34 328.19,343.34 329.81,343.34 331.42,343.34 333.04,343.34 334.65,343.34 336.27,343.34 337.88,343.34 339.50,343.34 341.11,343.34 342.73,343.34 344.35,343.34 345.96,343.34 347.58,343.34 349.19,343.34 350.81,343.34 352.42,343.34 354.04,343.34 355.65,343.34 357.27,343.34 358.89,343.34 360.50,343.34 362.12,343.34 363.73,343.34 365.35,343.34 366.96,343.34 368.58,343.34 370.19,343.34 371.81,343.34 373.43,343.34 375.04,343.34 376.66,343.34 378.27,343.34 379.89,343.34 381.50,343.34 383.12,343.34 384.74,343.34 386.35,343.34 387.97,343.34 389.58,343.34 391.20,343.34 392.81,343.34 394.43,343.34 396.04,343.34 397.66,343.34 399.28,343.34 400.89,343.34 402.51,343.34 404.12,343.34 405.74,343.34 407.35,343.34 408.97,343.34 410.58,343.34 412.20,343.34 413.82,343.34 415.43,343.34 417.05,343.34 418.66,343.34 420.28,343.34 421.89,343.34 423.51,343.34 425.13,343.34 426.74,343.34 428.36,343.34 429.97,343.34 431.59,343.34 433.20,343.34 434.82,343.34 436.43,343.34 438.05,343.34 439.67,343.34 441.28,343.34 442.90,343.34 444.51,343.34 446.13,343.34 447.74,343.34 449.36,343.34 450.97,343.34 452.59,343.34 454.21,343.34 455.82,343.34 457.44,343.34 459.05,343.34 460.67,343.34 462.28,343.34 463.90,343.34 465.52,343.34 467.13,343.34 468.75,343.34 470.36,343.34 471.98,343.34 473.59,343.34 475.21,343.34 476.82,343.34 478.44,343.34 480.06,343.34 481.67,343.34 483.29,343.34 484.90,343.34 486.52,343.34 488.13,343.34 489.75,343.34 491.36,343.34 492.98,343.34 494.60,343.34 496.21,343.34 497.83,343.34 499.44,343.34 501.06,343.34 502.67,343.34 504.29,343.34 505.91,343.34 507.52,343.34 509.14,343.34 510.75,343.34 512.37,343.34 513.98,343.34 515.60,343.34 517.21,343.34 518.83,343.34 520.45,343.34 522.06,343.34 523.68,343.34 525.29,343.34 526.91,343.34 528.52,343.34 530.14,343.34 531.75,343.34 533.37,343.34 534.99,343.34 536.60,343.34 538.22,343.34 539.83,343.34 541.45,343.34 543.06,343.34 544.68,343.34 546.30,343.34 547.91,343.34 549.53,343.34 551.14,343.34 552.76,343.34 554.37,343.34 555.99,343.34 557.60,343.34 559.22,343.34 560.84,343.34 562.45,343.34 564.07,343.34 565.68,343.34 567.30,343.34 568.91,343.34 570.53,343.34 572.14,343.34 573.76,343.34 575.38,343.34 576.99,343.34 578.61,343.34 580.22,343.34 581.84,343.34 583.45,343.34 585.07,343.34 586.69,343.34 588.30,343.34 589.92,343.34 591.53,343.34 593.15,343.34 594.76,343.34 596.38,343.34 597.99,343.34 599.61,343.34 601.23,343.34 602.84,343.34 604.46,343.34 606.07,343.34 607.69,343.34 609.30,343.34 610.92,343.34 612.53,343.34 614.15,343.34 615.77,343.34 617.38,343.34 619.00,343.34 620.61,343.34 622.23,343.34 623.84,343.34 625.46,343.34 627.08,343.34 628.69,343.34 630.31,343.34 631.92,343.34 633.54,343.34 635.15,343.34 636.77,343.34 638.38,343.34 640.00,343.34"/>
  <text x="350.0" y="30.0" text-anchor="middle" font-family="Arial" font-size="16">Metaslayer crisis & isolation</text>
  <text x="350.0" y="408" text-anchor="middle" font-family="Arial" font-size="12">step</text>
  <rect x="480" y="66" width="150" height="42" fill="white" stroke="#ccc"/>
  <line x1="490" y1="80" x2="510" y2="80" stroke="#1f77b4" stroke-width="2"/>
  <text x="520" y="84" font-family="Arial" font-size="12">C(t)</text>
  <line x1="490" y1="98" x2="510" y2="98" stroke="#d62728" stroke-width="2"/>
  <text x="520" y="102" font-family="Arial" font-size="12">I(t)</text>
</svg>