<svg xmlns="http://www.w3.org/2000/svg" width="700" height="420">
  <rect width="100%" height="100%" fill="white"/>
  <line x1="60" y1="60" x2="60" y2="360" stroke="#333" stroke-width="1"/>
  <line x1="60" y1="360" x2="640" y2="360" stroke="#333" stroke-width="1"/>
  <polyline fill="none" stroke="#1f77b4" stroke-width="2" points="60.00,357.52 61.62,339.01 63.23,349.79 64.85,316.68 66.46,345.26 68.08,348.14 69.69,323.60 71.31,272.30 72.92,324.19 74.54,325.28 76.16,325.28 77.77,309.16 79.39,325.28 81.00,325.28 82.62,325.19 84.23,325.28 85.85,310.28 87.47,325.28 89.08,325.28 90.70,289.42 92.31,325.28 93.93,325.28 95.54,317.53 97.16,281.98 98.77,325.28 100.39,325.28 102.01,325.28 103.62,324.38 105.24,277.99 106.85,321.07 108.47,319.85 110.08,322.44 111.70,318.35 113.31,325.28 114.93,322.53 116.55,304.06 118.16,302.17 119.78,308.03 121.39,325.28 123.01,325.14 124.62,322.11 126.24,323.39 127.86,325.28 129.47,325.19 131.09,325.28 132.70,280.61 134.32,317.77 135.93,325.28 137.55,298.22 139.16,322.15 140.78,325.28 142.40,325.28 144.01,325.28 145.63,321.95 147.24,325.28 148.86,325.28 150.47,309.31 152.09,325.28 153.70,323.26 155.32,325.27 156.94,101.99 158.55,101.92 160.17,160.26 161.78,314.37 163.40,315.69 165.01,312.06 166.63,197.70 168.25,284.99 169.86,226.17 171.48,317.82 173.09,186.47 174.71,248.06 176.32,268.65 177.94,269.58 179.55,112.21 181.17,202.13 182.79,200.88 184.40,148.02 186.02,229.73 187.63,260.30 189.25,181.21 190.86,239.17 192.48,172.58 194.09,304.31 195.71,201.38 197.33,169.90 198.94,239.95 200.56,279.68 202.17,280.37 203.79,168.69 205.40,310.17 207.02,283.55 208.64,88.27 210.25,296.29 211.87,317.55 213.48,321.96 215.10,230.99 216.71,248.14 218.33,216.40 219.94,138.20 221.56,229.94 223.18,308.19 224.79,192.57 226.41,283.94 228.02,288.27 229.64,309.57 231.25,205.44 232.87,200.33 234.48,189.66 236.10,203.76 237.72,136.45 239.33,253.06 240.95,222.08 242.56,248.11 244.18,226.38 245.79,234.63 247.41,247.17 249.03,317.82 250.64,297.28 252.26,138.92 253.87,323.88 255.49,323.67 257.10,320.75 258.72,325.28 260.33,300.65 261.95,325.28 263.57,325.28 265.18,314.66 266.80,294.86 268.41,325.28 270.03,303.05 271.64,324.35 273.26,321.74 274.87,316.25 276.49,319.51 278.11,322.05 279.72,325.28 281.34,325.28 282.95,325.28 284.57,315.31 286.18,325.28 287.80,325.28 289.42,325.28 291.03,325.28 292.65,325.28 294.26,325.28 295.88,323.09 297.49,322.23 299.11,325.28 300.72,288.85 302.34,315.48 303.96,317.14 305.57,310.21 307.19,325.28 308.80,325.28 310.42,325.28 312.03,322.10 313.65,325.28 315.26,325.28 316.88,325.28 318.50,322.43 320.11,325.28 321.73,325.28 323.34,324.03 324.96,325.28 326.57,325.23 328.19,304.88 329.81,321.85 331.42,268.88 333.04,316.64 334.65,325.28 336.27,300.83 337.88,323.24 339.50,324.52 341.11,315.68 342.73,325.28 344.35,316.81 345.96,325.28 347.58,325.28 349.19,291.56 350.81,317.53 352.42,324.25 354.04,312.49 355.65,274.32 357.27,297.29 358.89,283.39 360.50,318.95 362.12,312.72 363.73,207.86 365.35,302.89 366.96,265.70 368.58,159.68 370.19,127.82 371.81,316.63 373.43,231.12 375.04,236.87 376.66,195.64 378.27,286.85 379.89,121.46 381.50,202.10 383.12,182.98 384.74,273.80 386.35,244.44 387.97,322.81 389.58,314.91 391.20,323.90 392.81,304.52 394.43,187.86 396.04,263.32 397.66,285.86 399.28,324.09 400.89,306.33 402.51,311.22 404.12,314.47 405.74,236.46 407.35,295.17 408.97,325.27 410.58,310.32 412.20,262.65 413.82,293.49 415.43,238.43 417.05,306.96 418.66,137.91 420.28,302.39 421.89,284.36 423.51,220.13 425.13,286.08 426.74,322.87 428.36,299.17 429.97,292.12 431.59,280.67 433.20,266.78 434.82,324.82 436.43,259.29 438.05,167.96 439.67,313.45 441.28,295.16 442.90,287.02 444.51,324.27 446.13,256.13 447.74,322.03 449.36,307.80 450.97,325.28 452.59,317.75 454.21,325.28 455.82,317.58 457.44,321.00 459.05,308.19 460.67,325.21 462.28,325.28 463.90,303.34 465.52,302.44 467.13,325.17 468.75,322.44 470.36,325.28 471.98,325.28 473.59,325.28 475.21,325.28 476.82,316.99 478.44,325.28 480.06,325.28 481.67,323.26 483.29,325.28 484.90,314.53 486.52,325.28 488.13,325.28 489.75,322.88 491.36,323.26 492.98,325.12 494.60,325.28 496.21,325.28 497.83,316.22 499.44,310.01 501.06,325.28 502.67,325.28 504.29,311.76 505.91,315.07 507.52,320.24 509.14,324.92 510.75,318.94 512.37,325.17 513.98,325.28 515.60,313.43 517.21,325.28 518.83,325.28 520.45,294.83 522.06,322.37 523.68,316.25 525.29,325.28 526.91,293.85 528.52,318.67 530.14,324.73 531.75,319.30 533.37,325.20 534.99,325.28 536.60,325.28 538.22,292.26 539.83,325.28 541.45,319.60 543.06,297.63 544.68,140.46 546.30,207.47 547.91,201.53 549.53,188.48 551.14,154.46 552.76,226.01 554.37,160.44 555.99,205.41 557.60,247.22 559.22,234.71 560.84,134.31 562.45,81.26 564.07,141.81 565.68,96.01 567.30,123.06 568.91,149.83 570.53,268.18 572.14,209.80 573.76,198.25 575.38,189.82 576.99,184.59 578.61,129.45 580.22,79.04 581.84,87.92 583.45,258.06 585.07,123.21 586.69,107.89 588.30,264.77 589.92,270.27 591.53,60.00 593.15,77.11 594.76,159.63 596.38,194.28 597.99,153.33 599.61,148.82 601.23,169.71 602.84,205.92 604.46,78.41 606.07,170.47 607.69,283.69 609.30,323.78 610.92,325.28 612.53,320.21 614.15,319.40 615.77,325.28 617.38,324.96 619.00,321.51 620.61,325.02 622.23,325.28 623.84,325.28 625.46,325.25 627.08,322.12 628.69,325.28 630.31,298.73 631.92,325.28 633.54,325.28 635.15,323.39 636.77,275.78 638.38,325.28 640.00,325.28"/>
  <polyline fill="none" stroke="#d62728" stroke-width="2" points="60.00,357.52 61.62,344.01 63.23,352.94 64.85,332.88 66.46,350.99 68.08,351.94 69.69,334.74 71.31,317.56 72.92,341.58 74.54,338.71 76.16,335.62 77.77,326.72 79.39,335.15 81.00,332.68 82.62,330.70 84.23,329.27 85.85,322.22 87.47,331.92 89.08,330.15 90.70,316.97 92.31,337.15 93.93,334.32 95.54,328.72 97.16,318.64 98.77,340.10 100.39,336.82 102.01,334.04 103.62,331.39 105.24,315.87 106.85,338.16 108.47,335.21 110.08,334.60 111.70,330.99 113.31,333.54 114.93,330.18 116.55,322.60 118.16,326.31 119.78,331.12 121.39,338.38 123.01,335.28 124.62,331.47 126.24,330.93 127.86,330.60 129.47,329.10 131.09,328.08 132.70,313.70 134.32,335.16 135.93,336.85 137.55,324.35 139.16,336.69 140.78,335.75 142.40,333.17 144.01,331.11 145.63,328.05 147.24,329.40 148.86,328.25 150.47,321.17 152.09,331.76 153.70,329.11 155.32,329.34 156.94,299.07 158.55,322.44 160.17,336.25 161.78,358.09 163.40,355.34 165.01,351.11 166.63,327.03 168.25,346.17 169.86,334.08 171.48,353.46 173.09,326.45 174.71,340.71 176.32,343.93 177.94,342.79 179.55,322.90 181.17,339.96 182.79,340.35 184.40,335.50 186.02,346.30 187.63,348.93 189.25,336.91 190.86,345.34 192.48,336.35 194.09,355.66 195.71,336.62 197.33,334.94 198.94,345.44 200.56,350.07 202.17,347.68 203.79,329.91 205.40,354.78 207.02,345.84 208.64,320.49 210.25,353.81 211.87,355.31 213.48,353.13 215.10,329.75 216.71,336.53 218.33,333.10 219.94,327.66 221.56,343.33 223.18,355.03 224.79,333.32 226.41,349.25 228.02,347.60 229.64,350.09 231.25,327.71 232.87,332.51 234.48,334.63 236.10,338.77 237.72,332.98 239.33,348.88 240.95,342.76 242.56,345.70 244.18,341.31 245.79,342.31 247.41,343.61 249.03,355.52 250.64,347.14 252.26,321.84 253.87,357.17 255.49,353.75 257.10,349.13 258.72,347.11 260.33,334.79 261.95,343.30 263.57,339.66 265.18,332.12 266.80,325.55 268.41,339.79 270.03,328.32 271.64,338.16 273.26,334.17 274.87,330.24 276.49,331.63 278.11,331.94 279.72,332.16 281.34,330.33 282.95,328.94 284.57,323.77 286.18,330.34 287.80,328.95 289.42,327.91 291.03,327.16 292.65,326.61 294.26,326.22 295.88,324.96 297.49,325.18 299.11,327.24 300.72,314.91 302.34,332.34 303.96,332.55 305.57,329.33 307.19,336.32 308.80,333.64 310.42,331.48 312.03,328.39 313.65,329.55 315.26,328.36 316.88,327.48 318.50,325.57 320.11,327.38 321.73,326.77 323.34,325.77 324.96,326.47 326.57,326.10 328.19,318.34 329.81,330.63 331.42,315.02 333.04,338.37 334.65,339.79 336.27,327.64 337.88,338.10 339.50,335.94 341.11,329.79 342.73,334.09 344.35,328.26 345.96,332.47 347.58,330.57 349.19,317.78 350.81,333.64 352.42,335.40 354.04,328.34 355.65,319.19 357.27,332.77 358.89,330.14 360.50,343.01 362.12,337.77 363.73,315.38 365.35,344.48 366.96,333.60 368.58,321.23 370.19,327.49 371.81,357.56 373.43,339.10 375.04,340.45 376.66,335.27 378.27,350.38 379.89,326.85 381.50,341.00 383.12,339.17 384.74,351.20 386.35,344.23 387.97,357.19 389.58,351.78 391.20,351.07 392.81,341.07 394.43,318.74 396.04,339.68 397.66,343.95 399.28,352.07 400.89,342.68 402.51,342.01 404.12,340.78 405.74,320.70 407.35,340.64 408.97,348.46 410.58,339.22 412.20,325.58 413.82,337.71 415.43,326.31 417.05,345.87 418.66,317.36 420.28,351.29 421.89,344.31 423.51,331.69 425.13,345.95 426.74,352.90 428.36,342.30 429.97,338.73 431.59,335.40 433.20,333.30 434.82,350.00 436.43,328.83 438.05,320.56 439.67,352.64 441.28,344.68 442.90,340.70 444.51,349.98 446.13,328.52 447.74,348.64 449.36,340.21 450.97,344.58 452.59,337.83 454.21,338.87 455.82,332.54 457.44,333.18 459.05,327.03 460.67,335.72 462.28,333.19 463.90,322.92 465.52,326.87 467.13,337.89 468.75,333.75 470.36,333.29 471.98,331.21 473.59,329.60 475.21,328.40 476.82,324.01 478.44,329.59 480.06,328.39 481.67,326.59 483.29,327.55 484.90,322.49 486.52,329.96 488.13,328.66 489.75,326.62 491.36,326.91 492.98,327.71 494.60,327.11 496.21,326.58 497.83,322.43 499.44,322.98 501.06,332.49 502.67,330.59 504.29,323.70 505.91,327.86 507.52,330.91 509.14,332.28 510.75,327.92 512.37,331.03 513.98,329.54 515.60,323.51 517.21,331.16 518.83,329.57 520.45,317.90 522.06,334.54 523.68,330.17 525.29,334.06 526.91,320.92 528.52,334.94 530.14,335.99 531.75,331.13 533.37,333.09 534.99,331.10 536.60,329.52 538.22,317.22 539.83,336.35 541.45,331.21 543.06,323.13 544.68,306.61 546.30,331.71 547.91,334.59 549.53,335.59 551.14,334.38 552.76,344.74 554.37,336.68 555.99,343.13 557.60,347.69 559.22,344.21 560.84,332.54 562.45,332.23 564.07,340.87 565.68,337.94 567.30,341.60 568.91,344.03 570.53,355.09 572.14,345.42 573.76,343.13 575.38,341.85 576.99,341.34 578.61,336.56 580.22,334.95 581.84,338.50 583.45,354.59 585.07,338.72 586.69,338.92 588.30,354.58 589.92,352.64 591.53,329.11 593.15,335.87 594.76,344.53 596.38,346.98 597.99,341.95 599.61,341.73 601.23,343.76 602.84,346.74 604.46,334.63 606.07,344.72 607.69,356.14 609.30,360.00 610.92,357.45 612.53,352.69 614.15,348.84 615.77,347.36 617.38,343.33 619.00,338.29 620.61,337.26 622.23,334.56 623.84,332.21 625.46,330.36 627.08,327.56 628.69,328.96 630.31,318.51 631.92,334.72 633.54,332.34 635.15,329.61 636.77,314.81 638.38,340.00 640.00,336.73"/>
  <text x="350.0" y="30.0" text-anchor="middle" font-family="Arial" font-size="16">Metaslayer energy track</text>
  <text x="350.0" y="408" text-anchor="middle" font-family="Arial" font-size="12">step</text>
  <rect x="480" y="66" width="150" height="42" fill="white" stroke="#ccc"/>
  <line x1="490" y1="80" x2="510" y2="80" stroke="#1f77b4" stroke-width="2"/>
  <text x="520" y="84" font-family="Arial" font-size="12">E(t)</text>
  <line x1="490" y1="98" x2="510" y2="98" stroke="#d62728" stroke-width="2"/>
  <text x="520" y="102" font-family="Arial" font-size="12">E_eff(t)</text>
</svg>